<svg width="256" height="256" viewBox="0 0 256 256" fill="none" xmlns="http://www.w3.org/2000/svg">
  <rect width="256" height="256" rx="48" fill="#0B1220"/>
  <path d="M128 34L196 58V116C196 160 167 198 128 220C89 198 60 160 60 116V58L128 34Z" fill="#1E3A8A"/>
  <path d="M128 52L180 70V116C180 151 158 181 128 200C98 181 76 151 76 116V70L128 52Z" fill="#2563EB"/>
  <path d="M127 89L151 111L133 111L133 156L121 156L121 111L103 111L127 89Z" fill="#F8FAFC"/>
  <rect x="95" y="156" width="66" height="12" rx="6" fill="#F8FAFC"/>
</svg>
